<svg width="1136" height="857" viewBox="0 0 1136 857" fill="none" xmlns="http://www.w3.org/2000/svg">
<g clip-path="url(#clip0)">
<path opacity="0.1" d="M584.53 172.83C513.13 184.75 441.62 178.33 372.78 169.45C303.94 160.57 235.26 149.23 163.71 151.43C117.71 152.86 66.5402 161.9 34.7102 189.64C4.09022 216.34 -0.289774 252.83 0.000226352 285.82C0.220226 310.65 2.55022 336.36 19.3602 356.31C31.0302 370.17 48.8702 380.22 62.3602 393.03C109.36 437.61 96.0302 506.67 66.2702 565.16C52.2702 592.59 35.1602 619.53 25.7702 647.65C16.3802 675.77 15.4502 706.1 33.1502 729.43C50.6902 752.51 84.2402 765.82 119.15 772.94C190.04 787.41 268.72 779.94 344.82 769.56C513.25 746.43 679.85 709.02 845.85 671.72C907.32 657.91 969.06 644.03 1028.2 623.72C1061.04 612.46 1094.45 598.29 1115.48 575.89C1142.17 547.44 1142.41 508.17 1116.04 484.34C1071.85 444.43 972.85 451.89 938.48 406.43C919.54 381.43 927.25 347.82 941.72 318.26C972.72 254.86 1033.47 192.61 1024.72 128.9C1018.72 85.14 976.34 48.51 920.04 38.38C861.04 27.76 785.63 45.49 752.26 88.99C717.85 133.77 647.57 162.31 584.53 172.83Z" fill="#234B90"/>
<path d="M889.28 151.43L889.58 151.94C862.48 185.77 860.69 238.3 860.58 238.75L854.87 232.15C854.97 231.67 862 185.48 889.28 151.43Z" fill="#444053"/>
<path d="M902.18 234.16C902.18 234.16 887.53 203.43 900.57 183.43" stroke="#444053" stroke-miterlimit="10"/>
<path d="M926.99 156.69C926.99 156.69 906.85 175.93 909.42 186.63" stroke="#444053" stroke-miterlimit="10"/>
<path d="M914.85 149.89C914.85 149.89 895.97 153.27 893.33 147.08" stroke="#444053" stroke-miterlimit="10"/>
<path d="M890.31 127.1C890.31 127.1 899.85 139.73 902.31 136.9" stroke="#444053" stroke-miterlimit="10"/>
<path d="M872.9 137.69C872.9 137.69 872.84 165.94 865.2 167.94" stroke="#444053" stroke-miterlimit="10"/>
<path d="M810.02 174.29C810.02 174.29 840.56 176.9 854.65 161.14" stroke="#444053" stroke-miterlimit="10"/>
<path d="M865.01 104.31C865.01 104.31 857.62 132.97 837.24 140.68" stroke="#444053" stroke-miterlimit="10"/>
<path d="M791.7 144.11C791.7 144.11 813.32 151.62 831.91 132.48" stroke="#444053" stroke-miterlimit="10"/>
<path d="M792.52 107.03C792.52 107.03 810.46 107.15 814.67 101.3" stroke="#444053" stroke-miterlimit="10"/>
<path opacity="0.1" d="M675.84 825.45C871.078 825.45 1029.35 817.915 1029.35 808.62C1029.35 799.325 871.078 791.79 675.84 791.79C480.602 791.79 322.33 799.325 322.33 808.62C322.33 817.915 480.602 825.45 675.84 825.45Z" fill="#234B90"/>
<path d="M668.59 784.06V791.88H437.33V785.52C451.433 780.295 463.669 771.003 472.488 758.821C481.308 746.638 486.314 732.113 486.874 717.083C487.434 702.054 483.522 687.196 475.634 674.391C467.745 661.586 456.235 651.41 442.56 645.15H667.02C656.705 649.888 647.58 656.873 640.312 665.594C633.045 674.314 627.82 684.549 625.02 695.55C621.262 710.365 622.059 725.969 627.305 740.324C632.552 754.68 642.005 767.12 654.43 776.02C658.849 779.199 663.596 781.894 668.59 784.06V784.06Z" fill="#D2D4DE"/>
<path opacity="0.1" d="M667.02 645.15C656.705 649.888 647.58 656.873 640.312 665.594C633.045 674.314 627.82 684.549 625.02 695.55H484.58C481.78 684.549 476.555 674.314 469.288 665.594C462.021 656.873 452.895 649.888 442.58 645.15H667.02Z" fill="black"/>
<path d="M172.53 605.32V649.21C172.53 673.46 190.27 693.11 212.16 693.11H892.54C914.43 693.11 932.17 673.46 932.17 649.21V605.32H172.53Z" fill="#D2D4DE"/>
<path opacity="0.1" d="M668.59 784.06V791.88H437.33V785.52C443.674 783.165 449.675 779.969 455.17 776.02H654.41C658.835 779.2 663.589 781.895 668.59 784.06V784.06Z" fill="black"/>
<path d="M735.5 778.46H370.41C365.163 778.46 360.91 782.713 360.91 787.96V792.13C360.91 797.377 365.163 801.63 370.41 801.63H735.5C740.747 801.63 745 797.377 745 792.13V787.96C745 782.713 740.747 778.46 735.5 778.46Z" fill="#D2D4DE"/>
<path d="M932.17 124.29C932.17 113.779 927.995 103.699 920.562 96.2673C913.13 88.8352 903.05 84.6599 892.54 84.6599H212.16C201.649 84.6599 191.569 88.8352 184.137 96.2673C176.705 103.699 172.53 113.779 172.53 124.29V613.85H932.17V124.29Z" fill="#30374E"/>
<path d="M911.45 141.97V562.64C911.45 567.814 909.394 572.777 905.735 576.436C902.077 580.094 897.114 582.15 891.94 582.15H212.77C210.207 582.151 207.67 581.647 205.302 580.667C202.934 579.687 200.783 578.25 198.971 576.439C197.159 574.627 195.722 572.475 194.742 570.108C193.762 567.74 193.258 565.202 193.26 562.64V141.97C193.256 139.405 193.758 136.865 194.736 134.495C195.715 132.124 197.151 129.97 198.964 128.155C200.776 126.34 202.928 124.9 205.297 123.918C207.666 122.936 210.205 122.43 212.77 122.43H891.94C894.504 122.431 897.043 122.938 899.411 123.921C901.78 124.903 903.931 126.343 905.743 128.158C907.555 129.972 908.991 132.126 909.971 134.496C910.95 136.866 911.452 139.406 911.45 141.97V141.97Z" fill="#DFE3EF"/>
<path d="M552.35 112.71C557.404 112.71 561.5 108.613 561.5 103.56C561.5 98.5065 557.404 94.4099 552.35 94.4099C547.297 94.4099 543.2 98.5065 543.2 103.56C543.2 108.613 547.297 112.71 552.35 112.71Z" fill="white"/>
<path d="M552.35 673.6C564.81 673.6 574.91 663.5 574.91 651.04C574.91 638.58 564.81 628.48 552.35 628.48C539.89 628.48 529.79 638.58 529.79 651.04C529.79 663.5 539.89 673.6 552.35 673.6Z" fill="white"/>
<path d="M911.44 141.97H193.26C193.255 139.405 193.755 136.864 194.734 134.493C195.712 132.122 197.148 129.967 198.961 128.152C200.773 126.337 202.926 124.897 205.295 123.915C207.665 122.933 210.205 122.429 212.77 122.43H891.93C894.495 122.429 897.035 122.933 899.404 123.915C901.774 124.897 903.927 126.337 905.739 128.152C907.551 129.967 908.988 132.122 909.966 134.493C910.944 136.864 911.445 139.405 911.44 141.97V141.97Z" fill="white"/>
<path d="M227.4 137.09C230.095 137.09 232.28 134.905 232.28 132.21C232.28 129.515 230.095 127.33 227.4 127.33C224.705 127.33 222.52 129.515 222.52 132.21C222.52 134.905 224.705 137.09 227.4 137.09Z" fill="#DFE3EF"/>
<path d="M242.03 137.09C244.725 137.09 246.91 134.905 246.91 132.21C246.91 129.515 244.725 127.33 242.03 127.33C239.335 127.33 237.15 129.515 237.15 132.21C237.15 134.905 239.335 137.09 242.03 137.09Z" fill="#DFE3EF"/>
<path d="M840.5 196H260.88V534.72H840.5V196Z" fill="white"/>
<path opacity="0.1" d="M931.15 628.97C931.15 628.97 933.44 629.97 933.96 631.46C934.48 632.95 931.15 628.97 931.15 628.97Z" fill="black"/>
<path opacity="0.1" d="M983.57 631.26C983.57 631.26 980.45 631.57 980.34 634.26L983.57 631.26Z" fill="black"/>
<path opacity="0.1" d="M954.66 673.89C954.97 673.58 962.14 662.97 963.81 663.89L954.66 673.89Z" fill="black"/>
<path opacity="0.1" d="M990.33 641.03C990.33 641.03 985.96 644.26 986.89 645.3C987.82 646.34 990.33 641.03 990.33 641.03Z" fill="black"/>
<path opacity="0.1" d="M990.53 654.34C990.53 654.34 998.64 651.74 999.53 654.34H990.53Z" fill="black"/>
<path opacity="0.1" d="M933.31 640.43C933.31 640.43 933.31 652.28 932.31 653.43C931.31 654.58 933.31 640.43 933.31 640.43Z" fill="black"/>
<path opacity="0.1" d="M980.19 644.23L981.69 648.47C981.69 648.47 982.29 644.31 980.19 644.23Z" fill="black"/>
<path d="M389.35 228.01H315.35V304.73H389.35V228.01Z" fill="#DFE3EF"/>
<path d="M484.35 228.01H410.35V304.73H484.35V228.01Z" fill="#DFE3EF"/>
<path opacity="0.2" d="M579.35 228.01H505.35V304.73H579.35V228.01Z" fill="#234B90"/>
<path opacity="0.2" d="M674.35 228.01H600.35V304.73H674.35V228.01Z" fill="#234B90"/>
<path opacity="0.2" d="M769.35 228.01H695.35V304.73H769.35V228.01Z" fill="#234B90"/>
<path opacity="0.1" d="M763.252 199.459L704.238 244.107L750.527 305.289L809.54 260.642L763.252 199.459Z" fill="#234B90"/>
<path d="M352.35 235.97C349.905 235.97 347.515 236.695 345.482 238.054C343.45 239.412 341.865 241.343 340.93 243.602C339.995 245.861 339.751 248.347 340.228 250.745C340.706 253.143 341.884 255.345 343.614 257.073C345.344 258.802 347.547 259.978 349.945 260.454C352.343 260.929 354.829 260.683 357.087 259.746C359.345 258.809 361.275 257.223 362.632 255.19C363.989 253.156 364.712 250.765 364.71 248.32C364.71 246.697 364.39 245.091 363.769 243.592C363.148 242.093 362.237 240.731 361.089 239.584C359.942 238.437 358.579 237.527 357.079 236.907C355.58 236.287 353.973 235.969 352.35 235.97V235.97ZM360.85 251.65C360.37 251.49 359.45 251.44 359.1 251.03C358.93 250.82 359.04 250.03 359.04 250.03C359.674 250.07 360.308 249.946 360.88 249.67C361.11 249.53 361.01 249.51 360.88 249.31C360.23 248.22 360.52 246.84 360.49 245.65C360.531 245.145 360.443 244.638 360.235 244.177C360.027 243.715 359.705 243.314 359.3 243.01C358.726 242.716 358.085 242.575 357.44 242.6C356.93 242.587 356.421 242.668 355.94 242.84C353.42 243.84 354.94 247.19 354.04 249.1C353.89 249.43 353.68 249.54 354.04 249.73C354.585 249.962 355.169 250.087 355.76 250.1C355.76 250.1 355.76 250.85 355.76 250.93C355.69 251.22 355.06 251.42 354.82 251.49C354.479 251.579 354.145 251.693 353.82 251.83C353.774 251.847 353.735 251.878 353.707 251.918C353.679 251.958 353.664 252.006 353.664 252.055C353.664 252.104 353.679 252.152 353.707 252.192C353.735 252.232 353.774 252.263 353.82 252.28C354.054 252.318 354.285 252.375 354.51 252.45C355.526 252.715 356.463 253.223 357.24 253.93C357.949 254.637 358.373 255.58 358.43 256.58C358.443 256.714 358.419 256.849 358.361 256.971C358.303 257.093 358.213 257.196 358.1 257.27L357.76 257.48C357.736 257.497 357.707 257.506 357.677 257.508C357.647 257.509 357.618 257.502 357.592 257.487C357.566 257.473 357.544 257.451 357.53 257.425C357.516 257.399 357.509 257.37 357.51 257.34C357.527 256.49 357.273 255.656 356.784 254.96C356.294 254.264 355.596 253.742 354.79 253.47C353.98 253.19 353.12 253.17 352.32 252.89C352.07 252.81 351.59 252.7 351.49 252.43C351.41 252.144 351.373 251.847 351.38 251.55C351.38 251.32 351.38 251.09 351.38 250.87C351.38 250.65 351.76 250.41 351.84 250.27C352.107 249.686 352.246 249.052 352.25 248.41C352.77 248.55 352.83 247.6 352.92 247.3C353.01 247 353.22 246.06 352.77 245.9C352.908 245.628 352.992 245.333 353.02 245.03C353.172 244.255 353.148 243.455 352.95 242.69C352.694 241.964 352.216 241.336 351.585 240.895C350.954 240.454 350.2 240.221 349.43 240.23C348.646 240.164 347.86 240.346 347.184 240.75C346.508 241.153 345.975 241.758 345.66 242.48C345.414 243.238 345.356 244.044 345.49 244.83C345.514 245.201 345.609 245.565 345.77 245.9C345.39 246.07 345.5 246.9 345.57 247.17C345.64 247.44 345.75 248.56 346.29 248.41C346.327 248.896 346.404 249.377 346.52 249.85C346.616 250.162 346.784 250.446 347.01 250.68C347.11 250.8 347.17 250.81 347.16 250.96C347.179 251.436 347.142 251.913 347.05 252.38C346.93 252.83 345.94 253.02 345.54 253.1C344.691 253.207 343.861 253.439 343.08 253.79C342.122 252.173 341.606 250.332 341.584 248.452C341.563 246.572 342.036 244.72 342.958 243.081C343.879 241.442 345.215 240.075 346.832 239.116C348.449 238.158 350.29 237.642 352.17 237.62C355.005 237.599 357.733 238.699 359.76 240.68C360.778 241.672 361.587 242.859 362.138 244.17C362.69 245.48 362.973 246.888 362.97 248.31C362.971 249.763 362.679 251.202 362.11 252.54C361.766 252.114 361.303 251.801 360.78 251.64L360.85 251.65Z" fill="white"/>
<path opacity="0.5" d="M353.48 292.65V278.98L359.78 285.28L361.35 283.65L352.35 274.65L343.35 283.65L344.93 285.22L351.23 278.98V292.65H353.48Z" fill="#234B90"/>
<path opacity="0.5" d="M448.48 292.65V278.98L454.78 285.28L456.35 283.65L447.35 274.65L438.35 283.65L439.92 285.22L446.23 278.98V292.65H448.48Z" fill="#234B90"/>
<path d="M447.7 245.93C447.675 245.897 447.642 245.87 447.605 245.852C447.568 245.833 447.527 245.823 447.485 245.823C447.443 245.823 447.402 245.833 447.365 245.852C447.328 245.87 447.295 245.897 447.27 245.93L442.14 252.74C442.108 252.777 442.087 252.821 442.079 252.869C442.072 252.917 442.078 252.966 442.096 253.011C442.115 253.056 442.146 253.094 442.185 253.122C442.225 253.151 442.271 253.167 442.32 253.17L451.32 253.95C451.368 253.955 451.416 253.946 451.459 253.925C451.502 253.904 451.538 253.872 451.564 253.832C451.59 253.791 451.604 253.745 451.605 253.697C451.606 253.649 451.594 253.601 451.57 253.56L447.71 245.96L447.7 245.93ZM453.55 249.55C453.525 249.517 453.492 249.49 453.455 249.472C453.418 249.453 453.377 249.443 453.335 249.443C453.293 249.443 453.252 249.453 453.215 249.472C453.178 249.49 453.145 249.517 453.12 249.55L451.74 250.95C451.706 250.993 451.687 251.046 451.687 251.1C451.687 251.155 451.706 251.208 451.74 251.25L453.16 254.01C453.18 254.046 453.209 254.077 453.244 254.099C453.279 254.122 453.319 254.136 453.36 254.14L455.87 254.35C455.918 254.355 455.966 254.346 456.009 254.325C456.052 254.304 456.088 254.272 456.114 254.232C456.14 254.191 456.154 254.145 456.155 254.097C456.156 254.049 456.144 254.001 456.12 253.96L453.58 249.58L453.55 249.55ZM454.16 247.34C454.463 247.335 454.756 247.225 454.989 247.031C455.221 246.836 455.381 246.568 455.44 246.27C455.491 246.003 455.459 245.726 455.347 245.477C455.235 245.229 455.049 245.021 454.814 244.883C454.579 244.745 454.307 244.682 454.036 244.705C453.764 244.727 453.506 244.833 453.297 245.007C453.088 245.182 452.938 245.417 452.868 245.681C452.798 245.944 452.811 246.223 452.906 246.478C453 246.734 453.172 246.954 453.396 247.108C453.621 247.262 453.887 247.343 454.16 247.34Z" fill="white"/>
<path d="M458.46 242.04L454.79 241.72L454.45 237.98C454.412 237.58 454.217 237.211 453.908 236.954C453.599 236.698 453.2 236.574 452.8 236.61L436.23 238.11C436.032 238.128 435.84 238.184 435.664 238.276C435.488 238.368 435.332 238.494 435.205 238.646C435.078 238.798 434.982 238.974 434.923 239.164C434.864 239.353 434.842 239.552 434.86 239.75L436.35 256.29C436.369 256.488 436.427 256.68 436.52 256.855C436.613 257.031 436.74 257.186 436.893 257.312C437.046 257.439 437.223 257.533 437.413 257.591C437.603 257.649 437.802 257.669 438 257.65L438.87 257.58L438.79 258.51C438.772 258.708 438.794 258.907 438.854 259.097C438.914 259.286 439.011 259.462 439.139 259.614C439.268 259.765 439.425 259.89 439.602 259.98C439.779 260.071 439.972 260.125 440.17 260.14L456.75 261.59C457.15 261.623 457.547 261.497 457.855 261.238C458.162 260.98 458.355 260.61 458.39 260.21L459.85 243.67C459.868 243.472 459.846 243.273 459.786 243.083C459.726 242.894 459.629 242.718 459.501 242.566C459.373 242.415 459.215 242.29 459.038 242.2C458.861 242.109 458.668 242.055 458.47 242.04H458.46ZM437.95 251.6C437.851 251.606 437.754 251.574 437.678 251.511C437.602 251.448 437.553 251.358 437.54 251.26L436.54 240.1C436.535 240.051 436.539 240.001 436.553 239.953C436.568 239.905 436.591 239.861 436.623 239.823C436.655 239.784 436.694 239.753 436.738 239.73C436.782 239.707 436.831 239.694 436.88 239.69L452.45 238.29C452.549 238.284 452.646 238.316 452.722 238.379C452.798 238.442 452.848 238.532 452.86 238.63L453.13 241.58L441.88 240.58C441.682 240.562 441.483 240.583 441.294 240.643C441.104 240.702 440.928 240.798 440.776 240.925C440.624 241.052 440.498 241.208 440.406 241.384C440.314 241.56 440.258 241.752 440.24 241.95L439.41 251.45L437.95 251.59V251.6ZM458.16 244.03L457.16 255.19C457.15 255.289 457.101 255.38 457.025 255.444C456.948 255.507 456.849 255.538 456.75 255.53L455.75 255.44L441.21 254.18C441.16 254.176 441.111 254.163 441.067 254.14C441.022 254.117 440.982 254.086 440.95 254.048C440.917 254.01 440.893 253.965 440.877 253.918C440.862 253.87 440.856 253.82 440.86 253.77L441.07 251.32L441.84 242.62C441.843 242.57 441.855 242.522 441.877 242.477C441.898 242.433 441.929 242.393 441.966 242.36C442.003 242.328 442.047 242.303 442.094 242.287C442.141 242.272 442.191 242.266 442.24 242.27L453.29 243.27L454.94 243.42L457.82 243.67C457.911 243.677 457.996 243.718 458.059 243.785C458.122 243.851 458.158 243.939 458.16 244.03V244.03Z" fill="white"/>
<path d="M484.35 380.14H315.35V506.14H484.35V380.14Z" fill="#DFE3EF"/>
<path d="M419.24 418.84C410.302 415.754 400.755 414.848 391.396 416.198C382.037 417.548 373.136 421.115 365.434 426.602C357.732 432.089 351.453 439.336 347.12 447.741C342.786 456.145 340.523 465.464 340.52 474.92C340.52 476.037 340.077 477.107 339.287 477.897C338.497 478.687 337.427 479.13 336.31 479.13C335.194 479.13 334.123 478.687 333.333 477.897C332.544 477.107 332.1 476.037 332.1 474.92C332.105 464.147 334.677 453.531 339.604 443.951C344.53 434.37 351.67 426.102 360.43 419.832C369.19 413.562 379.318 409.47 389.975 407.896C400.632 406.322 411.511 407.31 421.71 410.78" fill="#234B90"/>
<path d="M421.71 410.78C435.087 415.359 446.7 424.002 454.928 435.501C463.155 447 467.585 460.781 467.6 474.92C467.6 476.037 467.157 477.107 466.367 477.897C465.578 478.686 464.507 479.13 463.39 479.13C462.274 479.13 461.203 478.686 460.413 477.897C459.624 477.107 459.18 476.037 459.18 474.92C459.166 462.583 455.313 450.557 448.156 440.509C441 430.46 430.894 422.887 419.24 418.84" fill="white"/>
<path d="M406.09 444.96H406.02C404.791 444.964 403.583 445.276 402.506 445.866C401.428 446.457 400.515 447.307 399.85 448.34C399.185 447.307 398.272 446.457 397.194 445.866C396.117 445.276 394.909 444.964 393.68 444.96H393.61C391.674 444.976 389.822 445.756 388.459 447.131C387.095 448.506 386.33 450.364 386.33 452.3C386.49 455.421 387.572 458.424 389.44 460.93C393.35 466.28 399.85 470.93 399.85 470.93C399.85 470.93 406.35 466.25 410.26 460.93C412.128 458.424 413.21 455.421 413.37 452.3C413.37 450.364 412.605 448.506 411.241 447.131C409.878 445.756 408.026 444.976 406.09 444.96V444.96Z" fill="#234B90"/>
<path d="M787.35 327.47H530.96V518.14H787.35V327.47Z" fill="#DFE3EF"/>
<path d="M567.85 470.95H557.35V506.14H567.85V470.95Z" fill="white"/>
<path d="M587.85 427.39H577.35V506.14H587.85V427.39Z" fill="white"/>
<path d="M607.85 388.14H597.35V506.14H607.85V388.14Z" fill="#DFE3EF"/>
<path d="M627.85 360.14H617.35V506.14H627.85V360.14Z" fill="white"/>
<path d="M607.85 360.14H597.35V506.14H607.85V360.14Z" fill="#234B90"/>
<path d="M647.85 425.89H637.35V506.14H647.85V425.89Z" fill="#234B90"/>
<path d="M667.85 405.14H657.35V506.14H667.85V405.14Z" fill="white"/>
<path d="M687.85 373.64H677.35V506.14H687.85V373.64Z" fill="white"/>
<path opacity="0.2" d="M707.85 447.14H697.35V506.14H707.85V447.14Z" fill="#234B90"/>
<path opacity="0.2" d="M727.85 419.89H717.35V506.14H727.85V419.89Z" fill="#234B90"/>
<path opacity="0.2" d="M747.85 388.14H737.35V506.14H747.85V388.14Z" fill="#234B90"/>
<path opacity="0.2" d="M767.85 388.14H757.35V506.14H767.85V388.14Z" fill="#234B90"/>
<path d="M816.01 309.05L826.29 303.27L831.11 306.16L927.45 769.88L921.68 770.98L909.64 760.53L816.01 309.05Z" fill="#65617D"/>
<path opacity="0.1" d="M826.29 303.27L921.68 770.98L927.45 769.88L831.11 306.16L826.29 303.27Z" fill="black"/>
<path d="M755.38 328.62L828.7 335.64V341.31L755.77 334.96L755.38 328.62Z" fill="#65617D"/>
<path d="M763.15 397.7H840.9V406H762.15L763.15 397.7Z" fill="#65617D"/>
<path d="M770.28 470.13L848.77 467.01L858.59 470.13V475.45L788.85 479.12H770.92L770.28 470.13Z" fill="#65617D"/>
<path opacity="0.1" d="M789.85 474.45L858.59 470.13V475.45L788.85 479.12L789.85 474.45Z" fill="black"/>
<path opacity="0.1" d="M770.28 470.13L789.85 474.45L788.85 479.12H770.92L770.28 470.13Z" fill="black"/>
<path d="M777.39 548.74L864.05 540.7L873.6 543.19V548.74L796.19 556.87L777.39 558.54V548.74Z" fill="#65617D"/>
<path opacity="0.1" d="M795.86 552.2L864.99 545.25L873.6 543.19V548.74L796.19 556.87L795.86 552.2Z" fill="black"/>
<path opacity="0.1" d="M776.23 553.22L795.86 552.2L796.19 556.87L777.39 558.54L776.23 553.22Z" fill="black"/>
<path d="M781.51 626.92L879.24 613.94L887.62 617.27V623.61L803.32 636.29H783.51L781.51 626.92Z" fill="#65617D"/>
<path opacity="0.1" d="M803.32 632.28L887.62 617.27V623.61L803.32 636.29V632.28Z" fill="black"/>
<path opacity="0.1" d="M782.68 632.39L803.32 632.28V636.29H783.51L782.68 632.39Z" fill="black"/>
<path d="M787.28 707.42L894.48 687.43L903.97 693.01V697.42L809.91 720.24L790.52 721.71L787.28 707.42Z" fill="#65617D"/>
<path opacity="0.1" d="M809.91 715.7L903.97 693.01V697.42L809.91 720.24V715.7Z" fill="black"/>
<path opacity="0.1" d="M789.39 716.73L809.91 715.7V720.24L790.52 721.71L789.39 716.73Z" fill="black"/>
<path d="M762.21 297.49L753.54 299.42L784.86 798.06L794.01 801.43H801.24L762.21 297.49Z" fill="#65617D"/>
<path opacity="0.1" d="M757.98 298.43L794.01 801.43H801.24L762.21 297.49L757.98 298.43Z" fill="black"/>
<path d="M772.304 196.325L713.291 240.972L759.58 302.155L818.593 257.507L772.304 196.325Z" fill="white"/>
<path d="M772.304 196.325L713.291 240.972L759.58 302.155L818.593 257.507L772.304 196.325Z" fill="#DFE3EF"/>
<path opacity="0.5" d="M783.32 270.35L775.08 259.43L783.9 260.65L784.17 258.4L771.57 256.65L769.85 269.28L772.05 269.59L773.31 260.81L781.56 271.71L783.32 270.35Z" fill="#234B90"/>
<path d="M763.85 246.52C762.01 247.912 759.797 248.724 757.494 248.851C755.191 248.978 752.902 248.415 750.92 247.233C748.939 246.052 747.355 244.306 746.372 242.22C745.388 240.133 745.05 237.8 745.4 235.52C745.418 235.399 745.46 235.283 745.523 235.178C745.586 235.074 745.67 234.983 745.768 234.91C745.867 234.838 745.978 234.786 746.097 234.756C746.216 234.727 746.339 234.722 746.46 234.74C746.705 234.779 746.924 234.914 747.07 235.114C747.216 235.315 747.277 235.565 747.24 235.81C746.939 237.726 747.218 239.687 748.04 241.443C748.862 243.199 750.19 244.67 751.853 245.666C753.517 246.662 755.44 247.139 757.376 247.034C759.312 246.93 761.173 246.249 762.72 245.08C764.656 243.549 765.937 241.34 766.305 238.899C766.673 236.459 766.1 233.97 764.702 231.936C763.304 229.902 761.185 228.476 758.775 227.946C756.364 227.415 753.842 227.821 751.72 229.08L753.91 231.97C754.031 232.169 754.073 232.405 754.03 232.634C753.986 232.862 753.86 233.066 753.674 233.207C753.489 233.347 753.258 233.414 753.027 233.395C752.795 233.375 752.579 233.27 752.42 233.1L749.64 229.43C749.491 229.232 749.427 228.983 749.461 228.738C749.494 228.493 749.623 228.271 749.82 228.12C752.277 226.357 755.327 225.624 758.317 226.077C761.308 226.53 764.003 228.132 765.829 230.544C767.655 232.955 768.466 235.984 768.091 238.985C767.716 241.987 766.183 244.722 763.82 246.61L763.85 246.52Z" fill="white"/>
<path d="M749.9 235.72L757 235.55C757.239 235.527 757.481 235.553 757.709 235.627C757.938 235.701 758.148 235.822 758.328 235.981C758.508 236.14 758.654 236.335 758.755 236.552C758.857 236.77 758.912 237.006 758.919 237.247C758.925 237.487 758.881 237.726 758.791 237.948C758.701 238.171 758.566 238.373 758.395 238.541C758.223 238.709 758.019 238.841 757.794 238.926C757.57 239.012 757.33 239.051 757.09 239.04C756.9 239.045 756.711 239.018 756.53 238.96L749.74 236.86C749.667 236.837 749.599 236.8 749.54 236.751C749.482 236.702 749.433 236.642 749.398 236.574C749.363 236.506 749.341 236.432 749.335 236.356C749.328 236.28 749.337 236.203 749.36 236.13C749.397 236.014 749.469 235.913 749.565 235.84C749.662 235.766 749.779 235.724 749.9 235.72V235.72Z" fill="white"/>
<path d="M840.03 471.75C839.29 469.07 838.81 466.75 838.81 466.75C838.795 464.958 838.324 463.199 837.44 461.64V460.9L837.23 455.46C837.57 454.459 837.995 453.489 838.5 452.56C839.41 450.81 838.19 444.56 838.19 444.56C838.19 444.56 834.19 435.86 834.89 430.22C835.59 424.58 826.47 405.62 826.47 405.62C826.446 403.757 826.638 401.899 827.04 400.08C827.113 399.698 827.133 399.307 827.1 398.92C827.105 398.873 827.105 398.826 827.1 398.78V398.78C826.83 395.09 823.64 388.27 823.64 388.27L823.53 375.05C823.53 375.05 825.09 367.19 821.65 356.86C820.44 353.25 819.65 350.36 819.13 348.12C819.07 347.87 819.02 347.62 818.97 347.39C825.19 346.19 829.97 345.21 829.97 345.21C829.97 345.21 825.75 330.15 823.19 327.59C820.63 325.03 818.35 316.74 818.35 316.74C818.35 316.74 816.66 306.05 818.6 302.83C820.54 299.61 820.6 294.19 820.6 294.19C820.6 294.19 825.18 290.59 825.71 289.05C826.459 286.851 826.9 284.559 827.02 282.24C826.95 280.44 826.3 278.84 826.46 277.89C826.62 276.94 824.91 273.38 825.63 271.64C825.817 271.107 825.901 270.544 825.88 269.98C825.88 269.98 825.88 269.98 825.88 269.93C825.83 268.435 825.635 266.948 825.3 265.49C823.894 264.391 822.272 263.6 820.54 263.17L820.42 262.77L820.11 261.71C819.958 261.617 819.801 261.534 819.64 261.46V261.07L819.54 259.53L820.15 256.03C821.36 249.94 813.28 249.35 813.28 249.35C812.74 248.427 811.872 247.741 810.85 247.43C809.21 246.92 810.93 256.51 811.71 257.1C812.962 258.623 814.089 260.245 815.08 261.95V261.95L815.22 262.19C815.093 262.314 814.976 262.448 814.87 262.59L815.26 264.67L815.32 264.99C814.808 265.671 814.403 266.426 814.12 267.23C814.55 267.677 814.887 268.205 815.112 268.784C815.337 269.362 815.445 269.98 815.43 270.6C815.368 272.015 815.586 273.429 816.07 274.76C815.98 274.67 814.9 273.58 813.88 273.9C812.86 274.22 810 275.19 810 275.19C810 275.19 807.85 275.65 808.07 276.12C808.29 276.59 806.7 278.74 806.7 278.74L800.7 273.47C800.64 273.3 800.57 273.14 800.51 272.97C800.243 272.196 800.046 271.399 799.92 270.59C800.545 270.41 801.156 270.186 801.75 269.92C802.354 269.689 802.892 269.315 803.32 268.83C803.775 268.056 804.058 267.193 804.15 266.3C804.7 264.625 805.368 262.991 806.15 261.41C807.241 258.657 807.529 255.65 806.98 252.74C806.847 251.843 806.505 250.99 805.98 250.25C804.98 248.99 803.24 248.52 801.98 247.53C800.72 246.54 799.83 244.98 798.34 244.26C796.929 243.709 795.377 243.636 793.92 244.05C791.009 244.656 788.238 245.803 785.75 247.43C784.993 248.073 784.033 248.427 783.04 248.43C782.237 248.208 781.532 247.722 781.04 247.05C781.04 247.05 781.04 246.99 781.04 246.97L780.98 246.89C780.412 248.277 780.159 249.773 780.24 251.27C780.24 251.497 780.26 251.727 780.3 251.96C780.295 252.04 780.295 252.12 780.3 252.2C780.305 252.27 780.305 252.34 780.3 252.41V252.41C780.309 252.513 780.309 252.617 780.3 252.72C780.186 253.021 780.008 253.293 779.78 253.52C779.616 253.728 779.469 253.949 779.34 254.18C779.359 254.099 779.382 254.018 779.41 253.94C779.057 254.496 778.87 255.141 778.87 255.8C778.865 256.276 779.04 256.737 779.36 257.09C779.669 257.362 780.004 257.603 780.36 257.81C780.266 258.452 780.233 259.102 780.26 259.75C780.342 261.682 780.922 263.559 781.943 265.201C782.965 266.843 784.393 268.193 786.09 269.12C786.17 269.28 786.24 269.44 786.31 269.61C787.226 271.574 787.671 273.724 787.61 275.89C787.61 276.05 787.61 276.2 787.55 276.36L787.35 276.61C787.35 276.61 777.78 277.07 775.44 275.11C773.1 273.15 769.94 280.32 769.94 280.32C769.94 280.32 766.53 281.12 765.82 280.48C765.11 279.84 761.1 280.57 761.1 280.57C759.405 279.155 757.234 278.439 755.03 278.57C753.648 277.604 752.137 276.84 750.54 276.3V276.3H750.42C749.719 276.078 748.978 276.013 748.25 276.11C748.25 276.11 743.39 272.4 741.93 270.36C740.47 268.32 733.64 260.82 733.6 260.79V260.42L733.48 259.29C733.286 259.33 733.088 259.354 732.89 259.36L732.75 258.98C732.332 257.892 731.824 256.842 731.23 255.84C731.23 255.84 731.23 254.41 731.58 254.04C731.93 253.67 731.19 248.46 731.19 248.46C731.19 248.46 726.57 238.7 723.05 246.26C723.05 246.26 716.05 251.33 722.29 256.68C722.29 256.68 724.74 257.75 725.12 258.68C725.37 259.28 726.25 260.92 726.84 262.01L727.11 262.5L727.04 262.56L727.17 263.49V263.85C726.06 264.54 725.32 265.21 725.52 265.69C725.888 266.497 726.154 267.347 726.31 268.22C726.31 268.22 735.06 278.35 736.31 282.78C736.31 282.78 759.2 295.22 766.6 295.89L765.6 302.58C765.6 302.58 765.36 306.58 765.51 308.01C765.66 309.44 764.93 315.93 764.93 315.93C764.93 315.93 764.02 325.48 762.99 326.85C761.96 328.22 762.38 333.92 762.38 333.92C762.226 336.658 761.838 339.378 761.22 342.05C760.687 344.72 760.687 347.47 761.22 350.14C761.22 350.14 757.82 358.83 766.53 352.69C766.53 352.69 770.91 352.25 775.95 351.88C775.95 352.05 775.95 352.22 775.95 352.39C775.95 353.04 775.95 353.74 775.95 354.48C776.07 359.38 776.3 366.13 776.72 371.23C777.46 380.23 780.9 398 780.9 398L781.24 407C781.101 407.852 781.047 408.717 781.08 409.58C781.138 412.745 782.095 415.828 783.84 418.47L784.76 424.47C784.76 424.47 786.53 428.35 786.65 430.7C786.649 430.894 786.633 431.088 786.6 431.28C786.562 431.585 786.562 431.894 786.6 432.2C786.6 434.92 788.5 441.36 788.5 441.36C788.5 441.36 788.85 447.91 789.85 448.25C790.85 448.59 788.85 452.07 788.32 453.08C788.32 453.02 788.32 452.96 788.32 452.9L788.21 453.1C788.029 453.637 787.944 454.203 787.96 454.77C787.924 455.219 788.016 455.67 788.225 456.07C788.434 456.469 788.751 456.802 789.14 457.03C791.05 458.1 792.09 459.03 790.52 459.45C789.943 459.564 789.372 459.707 788.81 459.88C788.81 459.81 788.74 459.73 788.72 459.67C788.493 459.758 788.307 459.925 788.194 460.14C788.082 460.355 788.052 460.604 788.11 460.84C788.159 461.615 788.389 462.369 788.78 463.04C789.543 464.725 790.5 466.315 791.63 467.78L792.38 467.67C792.278 467.962 792.14 468.241 791.97 468.5C791.698 468.914 791.331 469.257 790.9 469.5C790.498 469.759 790.05 469.935 789.58 470.02C789.047 470.055 788.528 470.203 788.057 470.455C787.586 470.707 787.175 471.056 786.85 471.48C785.92 472.78 785.37 474.53 787.36 475.97L794.48 478.12C794.48 478.12 806.55 479.1 805.85 476.43C805.15 473.76 804.62 471.43 804.62 471.43C804.603 469.772 804.206 468.14 803.46 466.66C803.322 466.42 803.168 466.19 803 465.97L803.43 465.91C803.43 465.91 804.08 459.91 805.21 458.7C805.48 458.43 805.53 458.22 805.46 458.07C805.57 457.74 805.25 457.56 804.85 457.47C804.85 457.55 804.8 457.62 804.78 457.71C804.39 457.641 803.995 457.611 803.6 457.62C803.6 457.62 803.09 454.5 804.32 453.31C804.418 453.176 804.487 453.024 804.523 452.862C804.559 452.7 804.562 452.533 804.53 452.37C804.524 451.941 804.463 451.514 804.35 451.1C804.347 451.123 804.347 451.147 804.35 451.17C803.52 448.669 802.48 446.244 801.24 443.92C801.24 443.92 801.04 441.07 801.78 439.92C802.52 438.77 801.08 424.44 801.08 424.44C801.08 424.44 801.08 417.49 800.08 414.29C799.08 411.09 800.89 407.22 800.89 407.22V407.02C800.89 407.02 800.83 406.59 800.73 405.93V406C800.46 404.17 799.96 400.86 799.62 399.33C799.15 397.16 799.24 386.69 799.24 386.69L800.83 382.16L804.27 389.73L808 399.86C808.998 401.098 809.641 402.584 809.86 404.16C809.86 404.27 809.86 404.38 809.86 404.48C809.845 404.71 809.845 404.94 809.86 405.17C809.855 406.469 810.261 407.736 811.02 408.79C811.02 408.79 812.09 413.6 813.51 414.79C814.428 415.754 814.965 417.019 815.02 418.35C815.02 418.35 816.96 425.35 817.79 426.52C818.5 427.52 818.64 430.4 818.67 431.27C818.67 431.44 818.67 431.53 818.67 431.53C818.67 431.53 818.99 434.03 819.07 436.15V436.84C819.051 437.376 818.977 437.909 818.85 438.43C818.845 438.463 818.845 438.497 818.85 438.53C818.85 438.41 818.85 438.29 818.85 438.17C818.558 439.617 818.447 441.095 818.52 442.57C818.57 445.1 819.07 448.08 820.67 449.78C823.44 452.72 825.09 452.27 825.09 452.27C825.09 452.27 823.96 456.12 822.42 456.94C822.36 456.971 822.306 457.011 822.26 457.06C822.256 456.987 822.256 456.913 822.26 456.84C822.095 457.036 821.973 457.265 821.902 457.511C821.831 457.758 821.814 458.016 821.85 458.27C821.996 460.298 822.749 462.235 824.01 463.83C824.396 464.179 824.864 464.426 825.37 464.55L825.13 464.71C824.96 464.816 824.783 464.91 824.6 464.99C824.346 465.109 824.077 465.19 823.8 465.23C823.267 465.266 822.749 465.415 822.278 465.667C821.807 465.918 821.396 466.267 821.07 466.69C820.15 467.99 819.6 469.74 821.59 471.18L828.7 473.33C828.7 473.33 840.78 474.43 840.03 471.75Z" fill="url(#paint0_linear)"/>
<path d="M794.09 478.01L787.2 475.85C785.27 474.41 785.8 472.66 786.7 471.36C787.01 470.942 787.406 470.595 787.861 470.343C788.317 470.091 788.821 469.94 789.34 469.9C789.799 469.826 790.236 469.652 790.62 469.39C791.028 469.141 791.371 468.798 791.62 468.39C792.087 467.583 792.319 466.662 792.29 465.73C792.29 465.73 799.67 463.26 801.79 465.37C802.189 465.745 802.526 466.18 802.79 466.66C803.519 468.142 803.905 469.769 803.92 471.42C803.92 471.42 804.4 473.78 805.12 476.42C805.84 479.06 794.09 478.01 794.09 478.01Z" fill="#2D293D"/>
<path d="M827.22 473.43L820.33 471.27C818.4 469.82 818.93 468.07 819.82 466.78C820.127 466.359 820.522 466.01 820.978 465.757C821.434 465.505 821.94 465.356 822.46 465.32C822.729 465.286 822.99 465.205 823.23 465.08C823.406 465.002 823.576 464.911 823.74 464.81C825.6 463.69 825.46 461.12 825.46 461.12C825.46 461.12 832.83 458.65 834.96 460.76C835.245 461.044 835.497 461.359 835.71 461.7C836.571 463.27 837.032 465.029 837.05 466.82C837.05 466.82 837.52 469.18 838.24 471.82C838.96 474.46 827.22 473.43 827.22 473.43Z" fill="#2D293D"/>
<path opacity="0.1" d="M801.85 465.35C802.249 465.725 802.586 466.16 802.85 466.64V466.64L791.72 468.37C792.187 467.563 792.419 466.642 792.39 465.71C792.39 465.71 799.71 463.24 801.85 465.35Z" fill="black"/>
<path opacity="0.1" d="M835.71 461.66L835.79 463.75C834.16 466.69 825.73 466.38 823.23 465.04C823.406 464.962 823.576 464.871 823.74 464.77C825.6 463.65 825.46 461.08 825.46 461.08C825.46 461.08 832.83 458.61 834.96 460.72C835.245 461.004 835.497 461.319 835.71 461.66Z" fill="black"/>
<path d="M836.69 452.59C836.204 453.521 835.796 454.491 835.47 455.49L835.76 462.99C833.98 466.2 824.06 465.54 822.66 463.88C821.26 462.22 819.66 457.81 821.16 456.99C822.66 456.17 823.74 452.32 823.74 452.32C823.74 452.32 822.14 452.77 819.46 449.82C816.78 446.87 817.28 440.11 817.69 438.47C818.1 436.83 817.42 431.47 817.42 431.47C817.42 431.47 817.37 427.67 816.56 426.47C815.75 425.27 813.87 418.3 813.87 418.3C813.816 416.977 813.295 415.716 812.4 414.74C811.02 413.56 809.98 408.74 809.98 408.74C809.167 407.571 808.776 406.161 808.87 404.74C809.07 402.35 807.07 399.86 807.07 399.86L803.44 389.72L800.11 382.14L798.57 386.67C798.57 386.67 798.49 397.14 798.96 399.31C799.43 401.48 800.22 407.26 800.22 407.26C800.22 407.26 798.46 411.13 799.44 414.33C800.42 417.53 800.44 424.47 800.44 424.47C800.44 424.47 801.85 438.79 801.13 439.95C800.41 441.11 800.62 443.95 800.62 443.95C800.62 443.95 804.84 452.16 803.62 453.35C802.4 454.54 802.93 457.66 802.93 457.66C802.93 457.66 805.59 457.55 804.49 458.74C803.39 459.93 802.77 465.94 802.77 465.94L791.33 467.71C790.234 466.239 789.308 464.649 788.57 462.97C786.92 459.51 788.74 459.82 790.25 459.38C791.76 458.94 790.76 458.03 788.91 456.96C787.06 455.89 788.01 453.28 788.01 453.28C788.01 453.28 790.59 448.52 789.62 448.18C788.65 447.84 788.31 441.28 788.31 441.28C788.31 441.28 786.11 433.57 786.51 431.46C786.91 429.35 784.71 424.39 784.71 424.39L783.82 418.39C781.655 415.076 780.756 411.093 781.29 407.17L780.94 397.95C780.94 397.95 777.59 380.19 776.86 371.18C776.4 365.41 776.16 357.52 776.05 352.59C775.99 349.83 775.97 348 775.97 348L816.85 342.12C816.997 344.17 817.332 346.201 817.85 348.19C818.35 350.43 819.12 353.32 820.29 356.93C823.64 367.27 822.13 375.13 822.13 375.13L822.26 388.35C822.26 388.35 826.26 397.05 825.57 400.11C825.186 401.931 825.001 403.789 825.02 405.65C825.02 405.65 833.84 424.65 833.2 430.27C832.56 435.89 836.41 444.61 836.41 444.61C836.41 444.61 837.58 450.84 836.69 452.59Z" fill="#575988"/>
<path opacity="0.05" d="M811.32 403.99L823.75 401.85C823.75 401.85 816.95 409.34 811.32 403.99Z" fill="black"/>
<path opacity="0.1" d="M821.47 389.71C821.47 389.71 822.07 394.11 819.47 395.88C819.43 395.88 824.24 394.93 821.47 389.71Z" fill="black"/>
<path opacity="0.1" d="M820.17 375.68C820.17 375.68 810.05 384.68 806.23 384.11C802.41 383.54 820.17 375.68 820.17 375.68Z" fill="black"/>
<path opacity="0.1" d="M795.99 408.63C795.99 408.63 788.13 410.74 787.99 413.93C787.85 417.12 795.99 408.63 795.99 408.63Z" fill="black"/>
<path opacity="0.05" d="M799.26 448.18C799.26 448.18 788.13 450.7 791.37 452C794.138 452.975 796.981 453.724 799.87 454.24C799.87 454.24 803.49 454.29 799.26 448.18Z" fill="black"/>
<g opacity="0.05">
<path opacity="0.05" d="M789.19 454.35C788.9 454.184 788.652 453.955 788.463 453.68C788.274 453.405 788.15 453.09 788.1 452.76L787.99 452.97C787.99 452.97 787.05 455.57 788.9 456.64L789.5 457.01C789.83 456.93 790.19 456.87 790.5 456.77C792.04 456.33 791.04 455.43 789.19 454.35Z" fill="black"/>
<path opacity="0.05" d="M803.6 453.03C803.9 452.74 803.86 452.03 803.6 451.03C803.179 451.889 802.996 452.846 803.07 453.8C803.191 453.509 803.372 453.247 803.6 453.03V453.03Z" fill="black"/>
<path opacity="0.05" d="M800.06 405.83C799.688 406.972 799.476 408.16 799.43 409.36C799.616 408.525 799.877 407.708 800.21 406.92C800.21 406.92 800.15 406.5 800.06 405.83Z" fill="black"/>
<path opacity="0.05" d="M825.53 399.86C825.592 399.513 825.615 399.161 825.6 398.81C825.48 399.53 825.41 400.19 825.36 400.81C825.41 400.43 825.47 400.17 825.53 399.86Z" fill="black"/>
<path opacity="0.05" d="M801.09 439.62C801.276 438.93 801.343 438.213 801.29 437.5C800.973 438.357 800.821 439.266 800.84 440.18C800.901 439.984 800.985 439.796 801.09 439.62V439.62Z" fill="black"/>
<path opacity="0.05" d="M804.13 457.43C803.612 459.361 803.251 461.331 803.05 463.32L791.61 465.09C790.514 463.619 789.588 462.029 788.85 460.35C788.7 460.04 788.59 459.77 788.49 459.52C787.82 459.86 787.57 460.59 788.56 462.64C789.292 464.325 790.218 465.919 791.32 467.39L802.75 465.61C802.75 465.61 803.38 459.61 804.47 458.41C805.01 457.84 804.64 457.57 804.13 457.43Z" fill="black"/>
<path opacity="0.05" d="M788.29 440.97C788.29 440.97 788.64 447.52 789.61 447.86C790.05 446.75 790.33 445.71 789.9 445.56C788.9 445.21 788.59 438.66 788.59 438.66C788.59 438.66 786.39 430.95 786.78 428.84C787.17 426.73 784.99 421.77 784.99 421.77L784.09 415.77C781.925 412.452 781.03 408.465 781.57 404.54L781.21 395.33C781.21 395.33 777.86 377.57 777.14 368.56C776.67 362.79 776.44 354.9 776.33 349.97C776.33 349.08 776.33 348.29 776.28 347.63H775.95C775.95 347.63 775.95 349.46 776.03 352.23C776.14 357.15 776.38 365.04 776.84 370.81C777.57 379.81 780.92 397.58 780.92 397.58L781.27 406.8C780.729 410.758 781.646 414.778 783.85 418.11L784.74 424.11C784.74 424.11 786.93 429.11 786.54 431.18C786.15 433.25 788.29 440.97 788.29 440.97Z" fill="black"/>
<path opacity="0.05" d="M822.95 461.33C821.964 460.012 821.281 458.492 820.95 456.88C819.81 457.99 821.32 462.05 822.65 463.62C823.98 465.19 833.96 465.95 835.74 462.74L835.67 460.93C833.21 463.57 824.27 462.9 822.95 461.33Z" fill="black"/>
<path opacity="0.05" d="M836.98 450.04C836.489 450.969 836.081 451.939 835.76 452.94L835.81 454.27C836.07 453.609 836.364 452.961 836.69 452.33C836.959 451.57 837.068 450.764 837.01 449.96L836.98 450.04Z" fill="black"/>
<path opacity="0.05" d="M823.18 452.07C823.514 451.323 823.798 450.554 824.03 449.77C824.03 449.77 822.43 450.22 819.74 447.27C817.79 445.13 817.53 440.96 817.74 438.27C817.32 439.9 816.82 446.68 819.5 449.62C821.21 451.49 822.49 451.97 823.18 452.07Z" fill="black"/>
<path opacity="0.05" d="M817.41 431.19C817.651 433.054 817.788 434.93 817.82 436.81C817.82 436.44 817.93 436.14 817.98 435.92C818.4 434.29 817.71 428.92 817.71 428.92C817.71 428.92 817.65 425.12 816.85 423.92C816.05 422.72 814.15 415.75 814.15 415.75C814.097 414.427 813.576 413.165 812.68 412.19C811.31 411.01 810.27 406.19 810.27 406.19C809.449 405.025 809.057 403.611 809.16 402.19C809.35 399.8 807.35 397.31 807.35 397.31L803.73 387.17L800.39 379.59L798.85 384.04V385.49L800.1 381.81L803.44 389.39L807.06 399.52C807.06 399.52 809.06 402.01 808.87 404.4C808.767 405.82 809.156 407.232 809.97 408.4C809.97 408.4 810.97 413.21 812.39 414.4C813.286 415.371 813.807 416.63 813.86 417.95C813.86 417.95 815.75 424.95 816.55 426.13C817.35 427.31 817.41 431.19 817.41 431.19Z" fill="black"/>
</g>
<path d="M818.66 256.09L818.08 259.58L818.18 261.13L818.26 262.26L814.31 262.82L813.83 262.02C812.88 260.313 811.789 258.687 810.57 257.16C809.81 256.57 808.13 246.98 809.72 247.49C810.693 247.823 811.508 248.503 812.01 249.4C812.01 249.4 819.85 250 818.66 256.09Z" fill="#FFCDD3"/>
<path opacity="0.1" d="M818.26 262.26L814.31 262.82L813.83 262.02C814.339 261.39 815.052 260.956 815.845 260.794C816.639 260.632 817.464 260.75 818.18 261.13L818.26 262.26Z" fill="black"/>
<path d="M819.33 264.1L814.15 265.52L814.01 264.74L813.63 262.66C814.178 261.883 815.011 261.354 815.947 261.187C816.883 261.021 817.847 261.23 818.63 261.77L818.93 262.83L819.33 264.1Z" fill="#DCE6F2"/>
<path d="M734.36 259.71L728.9 262.92L728.35 261.92C727.78 260.83 726.92 259.18 726.68 258.59C726.31 257.68 723.94 256.59 723.94 256.59C717.88 251.23 724.66 246.17 724.66 246.17C728.06 238.62 732.55 248.38 732.55 248.38C732.55 248.38 733.32 253.59 732.93 253.96C732.54 254.33 732.59 255.76 732.59 255.76C733.166 256.764 733.658 257.814 734.06 258.9C734.26 259.43 734.36 259.71 734.36 259.71Z" fill="#FFCDD3"/>
<path opacity="0.1" d="M734.36 259.71L728.9 262.92L728.35 261.92C729.11 261.23 731.82 258.86 732.74 258.92C733.179 258.959 733.621 258.959 734.06 258.92C734.26 259.43 734.36 259.71 734.36 259.71Z" fill="black"/>
<path d="M734.99 261.43L728.85 264.71L728.68 263.36L728.55 262.44C728.55 262.44 732.07 259.18 733.14 259.26C733.687 259.319 734.24 259.295 734.78 259.19L734.9 260.32L734.99 261.43Z" fill="#DCE6F2"/>
<path d="M804.35 279.71C804.35 279.71 777.13 283.85 782.17 281.99C785.69 280.7 787.01 278.38 787.17 275.86C787.229 273.695 786.798 271.545 785.91 269.57C785.201 267.871 784.32 266.249 783.28 264.73C783.28 264.73 803.74 252.43 799.96 263.04C799.375 264.646 799.038 266.332 798.96 268.04C798.899 269.737 799.147 271.431 799.69 273.04C800.599 275.65 802.212 277.959 804.35 279.71Z" fill="#FFCDD3"/>
<path opacity="0.1" d="M800 263.04C799.415 264.646 799.078 266.332 799 268.04C797.1 269.77 794.93 269.74 792.16 269.85C790.03 269.93 787.69 270.54 785.95 269.57C785.241 267.871 784.36 266.249 783.32 264.73C783.32 264.73 803.78 252.43 800 263.04Z" fill="black"/>
<path d="M791.39 270.59C797.636 270.59 802.7 265.526 802.7 259.28C802.7 253.034 797.636 247.97 791.39 247.97C785.144 247.97 780.08 253.034 780.08 259.28C780.08 265.526 785.144 270.59 791.39 270.59Z" fill="#FFCDD3"/>
<path opacity="0.1" d="M804.35 279.71C804.35 279.71 777.13 283.85 782.17 281.99C785.69 280.7 787.01 278.38 787.17 275.86C788.48 274.34 791.17 273.17 792.91 272.53C794.493 271.932 796.221 271.838 797.86 272.26C798.503 272.428 799.12 272.688 799.69 273.03C800.597 275.644 802.21 277.956 804.35 279.71V279.71Z" fill="black"/>
<path opacity="0.1" d="M819.33 264.1L814.15 265.52L814.01 264.74C814.542 263.942 815.309 263.33 816.205 262.987C817.101 262.645 818.081 262.59 819.01 262.83L819.33 264.1Z" fill="black"/>
<path opacity="0.1" d="M734.99 261.43L728.85 264.71L728.68 263.36C730.676 262.207 732.755 261.204 734.9 260.36L734.99 261.43Z" fill="black"/>
<path opacity="0.1" d="M817.85 348.19C807.32 350.27 792.34 353.03 789.92 352.39C787.92 351.86 781.58 352.17 776.07 352.57C776.01 349.81 775.99 347.98 775.99 347.98L816.85 342.12C816.998 344.17 817.333 346.201 817.85 348.19V348.19Z" fill="black"/>
<path d="M828.28 345.3C828.28 345.3 793.64 352.63 789.85 351.63C786.06 350.63 766.85 352.63 766.85 352.63C758.43 358.76 761.71 350.07 761.71 350.07C761.189 347.398 761.189 344.651 761.71 341.98C762.316 339.3 762.698 336.574 762.85 333.83C762.85 333.83 762.44 328.14 763.43 326.77C764.42 325.4 765.29 315.85 765.29 315.85C765.29 315.85 765.99 309.35 765.85 307.93C765.71 306.51 765.92 302.5 765.92 302.5L766.92 295.81C759.76 295.13 737.59 282.66 737.59 282.66C736.37 278.24 727.89 268.1 727.89 268.1C727.743 267.225 727.487 266.372 727.13 265.56C726.5 264.06 734.93 260.69 734.93 260.69C734.93 260.69 741.6 268.24 743.01 270.28C744.42 272.32 749.13 276.03 749.13 276.03C749.836 275.932 750.555 276 751.23 276.23C751.266 276.225 751.303 276.225 751.34 276.23V276.23C752.893 276.774 754.359 277.542 755.69 278.51C757.832 278.387 759.938 279.104 761.56 280.51C761.56 280.51 765.44 279.79 766.13 280.43C766.82 281.07 770.13 280.28 770.13 280.28C770.13 280.28 773.18 273.12 775.45 275.08C777.72 277.04 786.98 276.59 786.98 276.59C788.15 274.9 791.11 273.59 792.98 272.92C794.563 272.323 796.291 272.228 797.93 272.65C798.641 272.823 799.318 273.118 799.93 273.52L805.76 278.81C805.76 278.81 807.3 276.66 807.09 276.19C806.88 275.72 808.96 275.27 808.96 275.27C808.96 275.27 811.68 274.27 812.71 273.98C813.74 273.69 814.71 274.75 814.84 274.84C814.362 273.511 814.145 272.102 814.2 270.69C814.238 269.44 813.782 268.226 812.93 267.31C815.93 259.01 823.71 265.56 823.71 265.56C823.71 265.56 824.71 270 824.04 271.74C823.37 273.48 825.04 277.03 824.85 277.98C824.66 278.93 825.33 280.53 825.4 282.34C825.285 284.653 824.862 286.94 824.14 289.14C823.63 290.69 819.2 294.28 819.2 294.28C819.2 294.28 819.13 299.71 817.2 302.92C815.27 306.13 816.97 316.82 816.97 316.82C816.97 316.82 819.2 325.11 821.67 327.68C824.14 330.25 828.28 345.3 828.28 345.3Z" fill="#656691"/>
<path opacity="0.1" d="M775.05 284.74C775.05 284.74 773.88 281.65 772.92 281.4C771.962 281.087 771.027 280.709 770.12 280.27L770.69 279.08C770.69 279.08 774.29 279.92 774.9 280.94C775.51 281.96 775.05 284.74 775.05 284.74Z" fill="black"/>
<path opacity="0.1" d="M755.69 278.54C755.53 279.54 747.11 280.68 747.11 280.68L751.22 276.23H751.33C752.888 276.783 754.357 277.561 755.69 278.54V278.54Z" fill="black"/>
<path d="M730.72 267.2C731.14 267.2 731.48 266.86 731.48 266.44C731.48 266.02 731.14 265.68 730.72 265.68C730.3 265.68 729.96 266.02 729.96 266.44C729.96 266.86 730.3 267.2 730.72 267.2Z" fill="#575988"/>
<path d="M731.75 268.68C732.17 268.68 732.51 268.34 732.51 267.92C732.51 267.5 732.17 267.16 731.75 267.16C731.331 267.16 730.99 267.5 730.99 267.92C730.99 268.34 731.331 268.68 731.75 268.68Z" fill="#575988"/>
<path d="M732.76 270.05C733.18 270.05 733.52 269.71 733.52 269.29C733.52 268.87 733.18 268.53 732.76 268.53C732.34 268.53 732 268.87 732 269.29C732 269.71 732.34 270.05 732.76 270.05Z" fill="#575988"/>
<path d="M733.81 271.53C734.23 271.53 734.57 271.19 734.57 270.77C734.57 270.35 734.23 270.01 733.81 270.01C733.39 270.01 733.05 270.35 733.05 270.77C733.05 271.19 733.39 271.53 733.81 271.53Z" fill="#575988"/>
<path d="M823.36 267.86C823.703 267.86 823.98 267.583 823.98 267.24C823.98 266.898 823.703 266.62 823.36 266.62C823.018 266.62 822.74 266.898 822.74 267.24C822.74 267.583 823.018 267.86 823.36 267.86Z" fill="#575988"/>
<path d="M823.51 269.26C823.853 269.26 824.13 268.982 824.13 268.64C824.13 268.298 823.853 268.02 823.51 268.02C823.168 268.02 822.89 268.298 822.89 268.64C822.89 268.982 823.168 269.26 823.51 269.26Z" fill="#575988"/>
<path d="M823.65 270.65C823.993 270.65 824.27 270.372 824.27 270.03C824.27 269.687 823.993 269.41 823.65 269.41C823.308 269.41 823.03 269.687 823.03 270.03C823.03 270.372 823.308 270.65 823.65 270.65Z" fill="#575988"/>
<path opacity="0.1" d="M776.09 310.49C775.99 310.38 798.45 336.6 814.48 320.33C814.48 320.33 788.34 324.91 776.09 310.49Z" fill="black"/>
<path opacity="0.1" d="M764.32 325.02C764.32 325.02 777.15 324.88 778.64 328.51L778.78 332.35C778.424 332.568 778.018 332.691 777.602 332.707C777.185 332.722 776.771 332.631 776.4 332.44C775.08 331.79 767.18 328.15 764.52 330.15L764.32 325.02Z" fill="black"/>
<path d="M764.56 325.01C764.56 325.01 776.83 324.87 778.25 328.34L778.39 332C778.048 332.206 777.659 332.321 777.26 332.335C776.861 332.349 776.466 332.261 776.11 332.08C774.85 331.47 767.29 328 764.75 329.9L764.56 325.01Z" fill="#656691"/>
<path opacity="0.1" d="M770.25 296.92C771.675 299.903 773.455 302.703 775.55 305.26C777.83 308.086 780.556 310.521 783.62 312.47C783.62 312.47 770.53 298.68 770.25 296.92Z" fill="black"/>
<path opacity="0.1" d="M765.48 282.19C765.48 282.19 767.98 291.34 773.61 294.26L765.48 282.19Z" fill="black"/>
<path opacity="0.1" d="M762.24 283.25C762.18 283.08 760.62 290.62 769.78 294.41C769.78 294.43 765.91 293.26 762.24 283.25Z" fill="black"/>
<path opacity="0.1" d="M817.96 274.91C817.82 274.91 822.52 277.66 823.81 278.91C823.85 278.96 820.66 274.61 817.96 274.91Z" fill="black"/>
<path d="M788.72 269.65C788.838 270.246 789.173 270.777 789.66 271.14C790.001 271.287 790.37 271.355 790.74 271.34C794.19 271.42 797.79 271.43 800.92 269.98C801.508 269.746 802.03 269.372 802.44 268.89C802.885 268.113 803.161 267.251 803.25 266.36C803.762 264.685 804.397 263.051 805.15 261.47C806.199 258.709 806.472 255.715 805.94 252.81C805.802 251.914 805.46 251.062 804.94 250.32C803.94 249.05 802.29 248.58 801.04 247.59C799.79 246.6 798.95 245.04 797.51 244.31C796.147 243.765 794.64 243.691 793.23 244.1C790.428 244.688 787.764 245.805 785.38 247.39C784.659 248.033 783.727 248.389 782.76 248.39C781.95 248.161 781.244 247.659 780.76 246.97C780.146 248.543 779.923 250.242 780.11 251.92C780.15 252.168 780.15 252.421 780.11 252.67C780.002 252.969 779.831 253.242 779.61 253.47C778.8 254.47 778.33 256.07 779.21 257.04C779.59 257.46 780.21 257.68 780.54 258.1C781.2 258.87 781.03 260.02 781.06 261.04C781.03 261.396 781.129 261.751 781.34 262.04C781.531 262.205 781.761 262.318 782.008 262.367C782.255 262.416 782.511 262.4 782.75 262.32C783.227 262.161 783.729 262.093 784.23 262.12C784.767 262.28 785.235 262.614 785.56 263.07C787.063 265.018 788.139 267.259 788.72 269.65V269.65Z" fill="#2D293D"/>
<g opacity="0.1">
<path opacity="0.1" d="M802.78 268.01C802.373 268.491 801.855 268.865 801.27 269.1C798.13 270.55 794.54 270.53 791.08 270.45C790.712 270.47 790.345 270.401 790.01 270.25C789.515 269.894 789.178 269.36 789.07 268.76C788.491 266.373 787.421 264.132 785.93 262.18C785.607 261.724 785.138 261.392 784.6 261.24C784.098 261.208 783.595 261.276 783.12 261.44C782.88 261.516 782.625 261.53 782.379 261.481C782.132 261.432 781.902 261.322 781.71 261.16C781.5 260.87 781.398 260.517 781.42 260.16C781.42 259.16 781.57 257.99 780.9 257.22C780.53 256.79 779.96 256.58 779.57 256.15C779.32 255.836 779.161 255.459 779.108 255.061C779.055 254.663 779.111 254.259 779.27 253.89C778.961 254.329 778.796 254.853 778.796 255.39C778.796 255.927 778.961 256.451 779.27 256.89C779.66 257.31 780.27 257.52 780.6 257.95C781.27 258.72 781.1 259.87 781.12 260.89C781.098 261.247 781.2 261.6 781.41 261.89C781.6 262.056 781.83 262.169 782.078 262.218C782.325 262.268 782.581 262.251 782.82 262.17C783.296 262.011 783.798 261.943 784.3 261.97C784.837 262.13 785.305 262.464 785.63 262.92C787.123 264.867 788.193 267.105 788.77 269.49C788.881 270.091 789.217 270.628 789.71 270.99C790.047 271.137 790.413 271.205 790.78 271.19C794.24 271.27 797.78 271.28 800.97 269.83C801.557 269.599 802.076 269.224 802.48 268.74C802.686 268.459 802.842 268.144 802.94 267.81L802.78 268.01Z" fill="black"/>
<path opacity="0.1" d="M780.15 252.43C780.298 252.259 780.407 252.058 780.47 251.84C780.516 251.595 780.516 251.344 780.47 251.1C780.322 249.719 780.448 248.322 780.84 246.99L780.78 246.92C780.163 248.492 779.937 250.191 780.12 251.87C780.15 252.055 780.16 252.243 780.15 252.43Z" fill="black"/>
</g>
<path opacity="0.1" d="M786.97 276.58C786.97 276.58 801.17 277.91 802.35 275.73Z" fill="black"/>
<path opacity="0.1" d="M814.2 269.68C814.2 269.68 822.05 269.38 823.89 272.26Z" fill="black"/>
<path opacity="0.1" d="M252.85 162.53C252.85 162.53 255.51 155.88 251.47 152.72C251.385 153.58 251.108 154.411 250.66 155.15C250.296 155.591 250.042 156.112 249.92 156.67C251.562 158.213 252.601 160.291 252.85 162.53Z" fill="white"/>
</g>
<defs>
<linearGradient id="paint0_linear" x1="-24564.8" y1="111663" x2="-26707.1" y2="55896.9" gradientUnits="userSpaceOnUse">
<stop stop-color="#808080" stop-opacity="0.25"/>
<stop offset="0.54" stop-color="#808080" stop-opacity="0.12"/>
<stop offset="1" stop-color="#808080" stop-opacity="0.1"/>
</linearGradient>
<clipPath id="clip0">
<rect width="1135.7" height="856.85" fill="white"/>
</clipPath>
</defs>
</svg>
