<svg width="417" height="241" viewBox="0 0 417 241" fill="none" xmlns="http://www.w3.org/2000/svg">
<g clip-path="url(#clip0)">
<path d="M195.051 22.6784L193.661 31.8318L410.183 64.743L411.574 55.5896L195.051 22.6784Z" fill="#F5F5F5"/>
<path d="M191.318 18.9918L165.02 192.115L390.693 226.417L416.991 53.2939L191.318 18.9918Z" fill="url(#paint0_linear)"/>
<path d="M193.655 31.8299L169.675 189.699L386.197 222.61L410.178 64.7411L193.655 31.8299Z" fill="#F5F5F5"/>
<path d="M201.88 28.3979C202.068 27.1621 201.218 26.008 199.983 25.8202C198.747 25.6324 197.594 26.482 197.406 27.7179C197.218 28.9537 198.067 30.1078 199.303 30.2956C200.538 30.4834 201.692 29.6338 201.88 28.3979Z" fill="#FF5252"/>
<path d="M208.031 29.3303C208.218 28.0944 207.369 26.9403 206.134 26.7526C204.898 26.5648 203.744 27.4144 203.557 28.6502C203.369 29.8861 204.218 31.0402 205.454 31.228C206.689 31.4157 207.843 30.5661 208.031 29.3303Z" fill="#FFFF00"/>
<path d="M214.182 30.2673C214.369 29.0314 213.52 27.8773 212.284 27.6895C211.049 27.5018 209.895 28.3514 209.708 29.5873C209.52 30.8231 210.369 31.9772 211.605 32.165C212.84 32.3528 213.994 31.5031 214.182 30.2673Z" fill="#69F0AE"/>
<path d="M200.665 47.3319L191.976 104.531L386.391 134.082L395.08 76.8828L200.665 47.3319Z" fill="url(#paint1_linear)"/>
<path d="M392.838 78.8811L202.616 49.9675L194.565 102.973L384.787 131.886L392.838 78.8811Z" fill="#3399FF"/>
<path d="M221.783 131.684L220.103 142.744L233.064 144.714L234.744 133.654L221.783 131.684Z" fill="url(#paint2_linear)"/>
<path d="M234.449 134.389L222.251 132.535L220.861 141.689L233.059 143.543L234.449 134.389Z" fill="#3399FF"/>
<path d="M232.068 150.024L219.87 148.17L218.48 157.324L230.677 159.178L232.068 150.024Z" fill="#FF5252"/>
<path d="M229.696 165.659L217.498 163.805L216.108 172.959L228.305 174.813L229.696 165.659Z" fill="#FF9800"/>
<path opacity="0.4" d="M352.71 154.316L254.361 139.367L253.551 144.703L351.9 159.652L352.71 154.316Z" fill="#3399FF"/>
<path opacity="0.4" d="M350.333 169.951L251.984 155.002L251.174 160.339L349.523 175.288L350.333 169.951Z" fill="#3399FF"/>
<path opacity="0.4" d="M347.961 185.586L249.612 170.637L248.802 175.974L347.151 190.923L347.961 185.586Z" fill="#3399FF"/>
<path d="M232.628 4.12556L5.0686 55.0076L7.05513 63.8976L234.615 13.0156L232.628 4.12556Z" fill="#F5F5F5"/>
<path d="M237.171 -0.00267329L-0.00219727 53.0291L37.5752 221.195L274.749 168.163L237.171 -0.00267329Z" fill="url(#paint3_linear)"/>
<path d="M234.613 13.0206L7.05347 63.9026L41.32 217.252L268.879 166.37L234.613 13.0206Z" fill="#F5F5F5"/>
<path d="M12.1024 60.3818C13.3997 60.0917 14.2341 58.8839 13.966 57.6841C13.6979 56.4842 12.4288 55.7467 11.1315 56.0368C9.83416 56.3269 8.99982 57.5347 9.26793 58.7345C9.53604 59.9344 10.8051 60.6719 12.1024 60.3818Z" fill="#FF5252"/>
<path d="M18.569 58.9404C19.8663 58.6503 20.7006 57.4425 20.4325 56.2427C20.1644 55.0428 18.8954 54.3053 17.598 54.5954C16.3007 54.8854 15.4664 56.0933 15.7345 57.2931C16.0026 58.493 17.2716 59.2305 18.569 58.9404Z" fill="#FFFF00"/>
<path d="M25.0309 57.4951C26.3282 57.205 27.1625 55.9972 26.8944 54.7973C26.6263 53.5975 25.3573 52.86 24.06 53.1501C22.7626 53.4401 21.9283 54.648 22.1964 55.8478C22.4645 57.0477 23.7335 57.7852 25.0309 57.4951Z" fill="#69F0AE"/>
<path d="M224.054 29.7708L19.7305 75.4573L32.1462 131.02L236.47 85.3337L224.054 29.7708Z" fill="url(#paint4_linear)"/>
<path d="M222.549 32.4391L22.6326 77.1401L34.1373 128.626L234.054 83.9251L222.549 32.4391Z" fill="#3399FF"/>
<path d="M85.4282 141.66L71.8066 144.706L74.2065 155.446L87.8281 152.4L85.4282 141.66Z" fill="url(#paint5_linear)"/>
<path d="M86.4654 143.101L73.5898 145.992L75.5933 154.92L88.4688 152.028L86.4654 143.101Z" fill="#3399FF"/>
<path d="M88.7885 157.632L75.9666 160.499L77.9531 169.389L90.775 166.522L88.7885 157.632Z" fill="#FF5252"/>
<path d="M93.3404 173.586L80.4648 176.478L82.4683 185.405L95.3438 182.513L93.3404 173.586Z" fill="#FF9800"/>
<path opacity="0.4" d="M210.399 116.436L107.038 139.548L108.197 144.734L211.558 121.622L210.399 116.436Z" fill="#3399FF"/>
<path opacity="0.4" d="M213.793 131.625L110.431 154.737L111.59 159.923L214.951 136.811L213.793 131.625Z" fill="#3399FF"/>
<path opacity="0.4" d="M217.186 146.81L113.824 169.921L114.983 175.107L218.344 151.996L217.186 146.81Z" fill="#3399FF"/>
<path d="M343.622 8.60645H79.1792V19.7837H343.622V8.60645Z" fill="#F5F5F5"/>
<path d="M349.674 4.88086H74.0579V216.317H349.674V4.88086Z" fill="url(#paint6_linear)"/>
<path d="M343.622 19.7837H79.1792V212.591H343.622V19.7837Z" fill="white"/>
<path d="M85.6364 16.9287C87.1458 16.9287 88.3693 15.7048 88.3693 14.1949C88.3693 12.6851 87.1458 11.4612 85.6364 11.4612C84.1271 11.4612 82.9036 12.6851 82.9036 14.1949C82.9036 15.7048 84.1271 16.9287 85.6364 16.9287Z" fill="#FF5252"/>
<path d="M93.1462 16.9287C94.6556 16.9287 95.8791 15.7048 95.8791 14.1949C95.8791 12.6851 94.6556 11.4612 93.1462 11.4612C91.6369 11.4612 90.4133 12.6851 90.4133 14.1949C90.4133 15.7048 91.6369 16.9287 93.1462 16.9287Z" fill="#FFFF00"/>
<path d="M100.656 16.9287C102.165 16.9287 103.389 15.7048 103.389 14.1949C103.389 12.6851 102.165 11.4612 100.656 11.4612C99.1464 11.4612 97.9229 12.6851 97.9229 14.1949C97.9229 15.7048 99.1464 16.9287 100.656 16.9287Z" fill="#69F0AE"/>
<path d="M327.792 37.0154H90.3528V106.873H327.792V37.0154Z" fill="url(#paint7_linear)"/>
<path d="M325.465 39.8096H93.1462V104.544H325.465V39.8096Z" fill="#3399FF"/>
<path d="M146.686 133.885H130.857V147.391H146.686V133.885Z" fill="url(#paint8_linear)"/>
<path d="M146.454 134.816H131.556V145.993H146.454V134.816Z" fill="#3399FF"/>
<path d="M146.454 153.911H131.556V165.088H146.454V153.911Z" fill="#FF5252"/>
<path d="M146.454 173.005H131.556V184.182H146.454V173.005Z" fill="#FF9800"/>
<path opacity="0.4" d="M291.245 137.145H171.129V143.665H291.245V137.145Z" fill="#3399FF"/>
<path opacity="0.4" d="M291.245 156.239H171.129V162.759H291.245V156.239Z" fill="#3399FF"/>
<path opacity="0.4" d="M291.245 175.334H171.129V181.854H291.245V175.334Z" fill="#3399FF"/>
<path d="M256.095 169.745H169.499V241H256.095V169.745Z" fill="url(#paint9_linear)"/>
<path d="M189.481 158.414C189.481 151.981 192.036 145.811 196.584 141.262C201.131 136.713 207.299 134.157 213.731 134.157C220.162 134.157 226.33 136.713 230.877 141.262C235.425 145.811 237.98 151.981 237.98 158.414V173.936H244.768V158.414C244.818 154.305 244.052 150.227 242.515 146.416C240.978 142.605 238.7 139.137 235.813 136.213C232.926 133.29 229.487 130.969 225.697 129.384C221.906 127.8 217.839 126.984 213.731 126.984C209.622 126.984 205.555 127.8 201.765 129.384C197.974 130.969 194.535 133.29 191.648 136.213C188.761 139.137 186.483 142.605 184.946 146.416C183.409 150.227 182.643 154.305 182.693 158.414V173.936H189.481V158.414Z" fill="url(#paint10_linear)"/>
<path d="M190.45 158.102C190.45 151.926 192.902 146.003 197.268 141.636C201.633 137.27 207.554 134.816 213.728 134.816C219.902 134.816 225.823 137.27 230.189 141.636C234.554 146.003 237.007 151.926 237.007 158.102V173.005H243.525V158.102C243.525 150.197 240.385 142.616 234.797 137.026C229.21 131.436 221.631 128.296 213.728 128.296C205.826 128.296 198.247 131.436 192.659 137.026C187.071 142.616 183.932 150.197 183.932 158.102V173.005H190.45V158.102Z" fill="white"/>
<path d="M254.233 172.074H173.224V238.206H254.233V172.074Z" fill="#3399FF"/>
<path d="M254.233 172.074H173.224V238.206H254.233V172.074Z" fill="white"/>
<path d="M254.233 185.114H173.224V225.166H254.233V185.114Z" fill="#3399FF"/>
<path d="M219.674 197.576C219.678 196.604 219.444 195.646 218.992 194.785C218.54 193.924 217.884 193.187 217.081 192.639C216.278 192.092 215.353 191.749 214.387 191.642C213.421 191.535 212.443 191.667 211.54 192.026C210.636 192.385 209.835 192.96 209.206 193.701C208.576 194.442 208.138 195.326 207.93 196.276C207.722 197.226 207.75 198.212 208.012 199.148C208.274 200.085 208.761 200.943 209.431 201.647V214.324C209.431 215.47 209.886 216.569 210.697 217.38C211.507 218.19 212.606 218.646 213.752 218.646C214.898 218.646 215.996 218.19 216.807 217.38C217.617 216.569 218.072 215.47 218.072 214.324V201.647C219.106 200.545 219.679 199.088 219.674 197.576Z" fill="url(#paint11_linear)"/>
<path opacity="0.2" d="M218.849 198.62C218.851 197.783 218.648 196.959 218.257 196.219C217.867 195.479 217.301 194.846 216.61 194.376C215.919 193.905 215.122 193.611 214.291 193.519C213.46 193.427 212.619 193.54 211.841 193.848C211.064 194.156 210.374 194.65 209.831 195.287C209.288 195.923 208.91 196.683 208.729 197.5C208.547 198.317 208.569 199.165 208.791 199.972C209.013 200.778 209.43 201.518 210.004 202.127V213.057C210.004 214.045 210.396 214.993 211.095 215.691C211.793 216.39 212.74 216.783 213.728 216.783C214.716 216.783 215.663 216.39 216.362 215.691C217.06 214.993 217.453 214.045 217.453 213.057V202.127C218.348 201.178 218.847 199.924 218.849 198.62Z" fill="black"/>
</g>
<defs>
<linearGradient id="paint0_linear" x1="277.859" y1="209.266" x2="304.173" y2="36.1457" gradientUnits="userSpaceOnUse">
<stop stop-color="#808080" stop-opacity="0.25"/>
<stop offset="0.54" stop-color="#808080" stop-opacity="0.12"/>
<stop offset="1" stop-color="#808080" stop-opacity="0.1"/>
</linearGradient>
<linearGradient id="paint1_linear" x1="32041.1" y1="93585.4" x2="35713.4" y2="69425.8" gradientUnits="userSpaceOnUse">
<stop stop-color="#808080" stop-opacity="0.25"/>
<stop offset="0.54" stop-color="#808080" stop-opacity="0.12"/>
<stop offset="1" stop-color="#808080" stop-opacity="0.1"/>
</linearGradient>
<linearGradient id="paint2_linear" x1="6501.4" y1="7950.5" x2="6548.74" y2="7639.07" gradientUnits="userSpaceOnUse">
<stop stop-color="#808080" stop-opacity="0.25"/>
<stop offset="0.54" stop-color="#808080" stop-opacity="0.12"/>
<stop offset="1" stop-color="#808080" stop-opacity="0.1"/>
</linearGradient>
<linearGradient id="paint3_linear" x1="125603" y1="78836.8" x2="111691" y2="16617.4" gradientUnits="userSpaceOnUse">
<stop stop-color="#808080" stop-opacity="0.25"/>
<stop offset="0.54" stop-color="#808080" stop-opacity="0.12"/>
<stop offset="1" stop-color="#808080" stop-opacity="0.1"/>
</linearGradient>
<linearGradient id="paint4_linear" x1="92681" y1="3497.36" x2="91162.3" y2="-3295" gradientUnits="userSpaceOnUse">
<stop stop-color="#808080" stop-opacity="0.25"/>
<stop offset="0.54" stop-color="#808080" stop-opacity="0.12"/>
<stop offset="1" stop-color="#808080" stop-opacity="0.1"/>
</linearGradient>
<linearGradient id="paint5_linear" x1="5272.87" y1="4464.32" x2="5216.12" y2="4210.54" gradientUnits="userSpaceOnUse">
<stop stop-color="#808080" stop-opacity="0.25"/>
<stop offset="0.54" stop-color="#808080" stop-opacity="0.12"/>
<stop offset="1" stop-color="#808080" stop-opacity="0.1"/>
</linearGradient>
<linearGradient id="paint6_linear" x1="125499" y1="98212.8" x2="125499" y2="2220.73" gradientUnits="userSpaceOnUse">
<stop stop-color="#808080" stop-opacity="0.25"/>
<stop offset="0.54" stop-color="#808080" stop-opacity="0.12"/>
<stop offset="1" stop-color="#808080" stop-opacity="0.1"/>
</linearGradient>
<linearGradient id="paint7_linear" x1="106717" y1="16068" x2="106717" y2="5589.31" gradientUnits="userSpaceOnUse">
<stop stop-color="#808080" stop-opacity="0.25"/>
<stop offset="0.54" stop-color="#808080" stop-opacity="0.12"/>
<stop offset="1" stop-color="#808080" stop-opacity="0.1"/>
</linearGradient>
<linearGradient id="paint8_linear" x1="4849.1" y1="4408.21" x2="4849.1" y2="4016.54" gradientUnits="userSpaceOnUse">
<stop stop-color="#808080" stop-opacity="0.25"/>
<stop offset="0.54" stop-color="#808080" stop-opacity="0.12"/>
<stop offset="1" stop-color="#808080" stop-opacity="0.1"/>
</linearGradient>
<linearGradient id="paint9_linear" x1="39749.8" y1="37042.8" x2="39749.8" y2="26140.7" gradientUnits="userSpaceOnUse">
<stop stop-color="#808080" stop-opacity="0.25"/>
<stop offset="0.54" stop-color="#808080" stop-opacity="0.12"/>
<stop offset="1" stop-color="#808080" stop-opacity="0.1"/>
</linearGradient>
<linearGradient id="paint10_linear" x1="38127.1" y1="26642.7" x2="38127.1" y2="21947.5" gradientUnits="userSpaceOnUse">
<stop stop-color="#808080" stop-opacity="0.25"/>
<stop offset="0.54" stop-color="#808080" stop-opacity="0.12"/>
<stop offset="1" stop-color="#808080" stop-opacity="0.1"/>
</linearGradient>
<linearGradient id="paint11_linear" x1="7469.99" y1="18057.7" x2="7469.99" y2="16489.4" gradientUnits="userSpaceOnUse">
<stop stop-color="#808080" stop-opacity="0.25"/>
<stop offset="0.54" stop-color="#808080" stop-opacity="0.12"/>
<stop offset="1" stop-color="#808080" stop-opacity="0.1"/>
</linearGradient>
<clipPath id="clip0">
<rect width="417" height="241" fill="white"/>
</clipPath>
</defs>
</svg>
